<svg id="visual" viewBox="0 0 900 600" width="900" height="600" xmlns="http://www.w3.org/2000/svg" xmlns:xlink="http://www.w3.org/1999/xlink" version="1.1"><g stroke-width="2" stroke-linejoin="bevel"><path d="M482 323L529 379L599 318Z" fill="#5e5e5e" stroke="#ffffff"></path><path d="M529 379L605 369L599 318Z" fill="#303030" stroke="#ffffff"></path><path d="M599 318L575 220L482 323Z" fill="#5e5e5e" stroke="#ffffff"></path><path d="M401 230L406 303L482 323Z" fill="#5e5e5e" stroke="#ffffff"></path><path d="M482 323L470 470L529 379Z" fill="#303030" stroke="#ffffff"></path><path d="M575 220L483 189L482 323Z" fill="#777777" stroke="#ffffff"></path><path d="M710 326L672 239L599 318Z" fill="#474747" stroke="#ffffff"></path><path d="M599 318L672 239L575 220Z" fill="#777777" stroke="#ffffff"></path><path d="M575 220L632 104L483 189Z" fill="#474747" stroke="#ffffff"></path><path d="M367 397L470 470L482 323Z" fill="#c6c6c6" stroke="#ffffff"></path><path d="M529 379L621 511L605 369Z" fill="#303030" stroke="#ffffff"></path><path d="M483 189L401 230L482 323Z" fill="#777777" stroke="#ffffff"></path><path d="M716 377L710 326L605 369Z" fill="#e2e2e2" stroke="#ffffff"></path><path d="M605 369L710 326L599 318Z" fill="#303030" stroke="#ffffff"></path><path d="M721 487L716 377L605 369Z" fill="#5e5e5e" stroke="#ffffff"></path><path d="M303 314L367 397L406 303Z" fill="#777777" stroke="#ffffff"></path><path d="M406 303L367 397L482 323Z" fill="#e2e2e2" stroke="#ffffff"></path><path d="M470 470L621 511L529 379Z" fill="#1b1b1b" stroke="#ffffff"></path><path d="M367 397L415 506L470 470Z" fill="#000000" stroke="#ffffff"></path><path d="M470 470L527 600L621 511Z" fill="#e2e2e2" stroke="#ffffff"></path><path d="M774 185L632 104L672 239Z" fill="#777777" stroke="#ffffff"></path><path d="M672 239L632 104L575 220Z" fill="#1b1b1b" stroke="#ffffff"></path><path d="M483 189L434 91L401 230Z" fill="#777777" stroke="#ffffff"></path><path d="M632 104L463 98L483 189Z" fill="#777777" stroke="#ffffff"></path><path d="M276 178L303 314L401 230Z" fill="#919191" stroke="#ffffff"></path><path d="M401 230L303 314L406 303Z" fill="#ababab" stroke="#ffffff"></path><path d="M367 397L286 508L415 506Z" fill="#5e5e5e" stroke="#ffffff"></path><path d="M716 377L780 330L710 326Z" fill="#000000" stroke="#ffffff"></path><path d="M710 326L774 185L672 239Z" fill="#1b1b1b" stroke="#ffffff"></path><path d="M781 394L780 330L716 377Z" fill="#303030" stroke="#ffffff"></path><path d="M621 511L721 487L605 369Z" fill="#474747" stroke="#ffffff"></path><path d="M721 487L781 394L716 377Z" fill="#777777" stroke="#ffffff"></path><path d="M531 0L434 91L463 98Z" fill="#e2e2e2" stroke="#ffffff"></path><path d="M463 98L434 91L483 189Z" fill="#919191" stroke="#ffffff"></path><path d="M780 330L774 185L710 326Z" fill="#1b1b1b" stroke="#ffffff"></path><path d="M415 506L527 600L470 470Z" fill="#c6c6c6" stroke="#ffffff"></path><path d="M621 511L728 600L721 487Z" fill="#5e5e5e" stroke="#ffffff"></path><path d="M527 600L588 600L621 511Z" fill="#303030" stroke="#ffffff"></path><path d="M303 314L275 424L367 397Z" fill="#1b1b1b" stroke="#ffffff"></path><path d="M415 506L424 600L527 600Z" fill="#000000" stroke="#ffffff"></path><path d="M774 185L707 76L632 104Z" fill="#c6c6c6" stroke="#ffffff"></path><path d="M632 104L531 0L463 98Z" fill="#1b1b1b" stroke="#ffffff"></path><path d="M289 129L276 178L401 230Z" fill="#303030" stroke="#ffffff"></path><path d="M303 314L197 302L275 424Z" fill="#000000" stroke="#ffffff"></path><path d="M285 600L424 600L415 506Z" fill="#c6c6c6" stroke="#ffffff"></path><path d="M275 424L286 508L367 397Z" fill="#303030" stroke="#ffffff"></path><path d="M434 91L289 129L401 230Z" fill="#e2e2e2" stroke="#ffffff"></path><path d="M637 0L531 0L632 104Z" fill="#303030" stroke="#ffffff"></path><path d="M434 91L364 0L289 129Z" fill="#c6c6c6" stroke="#ffffff"></path><path d="M728 600L788 533L721 487Z" fill="#ababab" stroke="#ffffff"></path><path d="M721 487L788 533L781 394Z" fill="#c6c6c6" stroke="#ffffff"></path><path d="M900 388L900 305L780 330Z" fill="#c6c6c6" stroke="#ffffff"></path><path d="M588 600L728 600L621 511Z" fill="#303030" stroke="#ffffff"></path><path d="M707 76L637 0L632 104Z" fill="#777777" stroke="#ffffff"></path><path d="M187 183L197 302L276 178Z" fill="#5e5e5e" stroke="#ffffff"></path><path d="M276 178L197 302L303 314Z" fill="#ababab" stroke="#ffffff"></path><path d="M275 424L224 517L286 508Z" fill="#777777" stroke="#ffffff"></path><path d="M900 388L780 330L781 394Z" fill="#e2e2e2" stroke="#ffffff"></path><path d="M780 330L900 305L774 185Z" fill="#1b1b1b" stroke="#ffffff"></path><path d="M774 185L819 76L707 76Z" fill="#303030" stroke="#ffffff"></path><path d="M900 529L900 388L781 394Z" fill="#777777" stroke="#ffffff"></path><path d="M531 0L364 0L434 91Z" fill="#919191" stroke="#ffffff"></path><path d="M900 184L819 76L774 185Z" fill="#303030" stroke="#ffffff"></path><path d="M707 76L737 0L637 0Z" fill="#ababab" stroke="#ffffff"></path><path d="M160 361L224 517L275 424Z" fill="#c6c6c6" stroke="#ffffff"></path><path d="M286 508L285 600L415 506Z" fill="#1b1b1b" stroke="#ffffff"></path><path d="M819 76L737 0L707 76Z" fill="#474747" stroke="#ffffff"></path><path d="M224 517L285 600L286 508Z" fill="#303030" stroke="#ffffff"></path><path d="M728 600L798 600L788 533Z" fill="#ffffff" stroke="#ffffff"></path><path d="M788 533L900 529L781 394Z" fill="#c6c6c6" stroke="#ffffff"></path><path d="M289 129L187 183L276 178Z" fill="#e2e2e2" stroke="#ffffff"></path><path d="M209 74L187 183L289 129Z" fill="#919191" stroke="#ffffff"></path><path d="M197 302L160 361L275 424Z" fill="#ffffff" stroke="#ffffff"></path><path d="M80 393L160 361L71 328Z" fill="#919191" stroke="#ffffff"></path><path d="M900 305L900 184L774 185Z" fill="#ababab" stroke="#ffffff"></path><path d="M364 0L299 0L289 129Z" fill="#ababab" stroke="#ffffff"></path><path d="M299 0L209 74L289 129Z" fill="#ffffff" stroke="#ffffff"></path><path d="M798 600L900 529L788 533Z" fill="#000000" stroke="#ffffff"></path><path d="M900 0L803 0L819 76Z" fill="#919191" stroke="#ffffff"></path><path d="M819 76L803 0L737 0Z" fill="#919191" stroke="#ffffff"></path><path d="M900 184L900 74L819 76Z" fill="#5e5e5e" stroke="#ffffff"></path><path d="M798 600L900 600L900 529Z" fill="#919191" stroke="#ffffff"></path><path d="M129 0L128 123L209 74Z" fill="#1b1b1b" stroke="#ffffff"></path><path d="M209 74L128 123L187 183Z" fill="#000000" stroke="#ffffff"></path><path d="M71 328L160 361L197 302Z" fill="#303030" stroke="#ffffff"></path><path d="M71 328L197 302L69 234Z" fill="#777777" stroke="#ffffff"></path><path d="M160 361L101 483L224 517Z" fill="#474747" stroke="#ffffff"></path><path d="M224 517L161 600L285 600Z" fill="#ababab" stroke="#ffffff"></path><path d="M80 393L101 483L160 361Z" fill="#919191" stroke="#ffffff"></path><path d="M69 234L197 302L187 183Z" fill="#000000" stroke="#ffffff"></path><path d="M101 483L161 600L224 517Z" fill="#ababab" stroke="#ffffff"></path><path d="M128 123L69 234L187 183Z" fill="#e2e2e2" stroke="#ffffff"></path><path d="M900 74L900 0L819 76Z" fill="#919191" stroke="#ffffff"></path><path d="M299 0L178 0L209 74Z" fill="#919191" stroke="#ffffff"></path><path d="M0 137L0 189L69 234Z" fill="#c6c6c6" stroke="#ffffff"></path><path d="M0 486L101 600L101 483Z" fill="#777777" stroke="#ffffff"></path><path d="M101 483L101 600L161 600Z" fill="#919191" stroke="#ffffff"></path><path d="M0 438L101 483L80 393Z" fill="#919191" stroke="#ffffff"></path><path d="M178 0L129 0L209 74Z" fill="#c6c6c6" stroke="#ffffff"></path><path d="M69 234L0 324L71 328Z" fill="#ffffff" stroke="#ffffff"></path><path d="M71 328L0 324L80 393Z" fill="#c6c6c6" stroke="#ffffff"></path><path d="M0 189L0 324L69 234Z" fill="#e2e2e2" stroke="#ffffff"></path><path d="M0 324L0 438L80 393Z" fill="#c6c6c6" stroke="#ffffff"></path><path d="M0 137L69 234L128 123Z" fill="#919191" stroke="#ffffff"></path><path d="M0 438L0 486L101 483Z" fill="#919191" stroke="#ffffff"></path><path d="M0 0L0 137L128 123Z" fill="#5e5e5e" stroke="#ffffff"></path><path d="M0 486L0 600L101 600Z" fill="#5e5e5e" stroke="#ffffff"></path><path d="M129 0L0 0L128 123Z" fill="#000000" stroke="#ffffff"></path></g></svg>